<?xml version="1.0"?>
<svg xmlns="http://www.w3.org/2000/svg" height="512px" viewBox="-45 0 511 511.99905" width="512px"><g><path d="m220.171875 244.761719v-89.742188l-62.507813 75.613281h28.765626c8.285156 0 15 6.714844 15 15v89.738282l62.507812-75.609375h-28.765625c-8.285156 0-15-6.714844-15-15zm0 0" data-original="#000000" class="active-path" data-old_color="#000000" fill="#FFFFFF"/><path d="m414.511719 64.3125c-65.324219-44.210938-133.988281-65.824219-204.050781-64.2304688-64.761719 1.4726568-132.90625 22.9062498-202.542969 63.7109378-4.59375 2.691406-7.417969 7.617187-7.417969 12.941406v176.613281c0 31.253906 4.667969 59.367188 13.871094 83.558594 10.75 28.261719 27.726562 51.300781 50.453125 68.480469l137.023437 103.578125c2.675782 2.023437 5.859375 3.035156 9.046875 3.035156s6.375-1.015625 9.050781-3.039062l136.902344-103.585938c22.703125-17.183594 39.664063-40.214844 50.402344-68.464844 9.191406-24.175781 13.851562-52.269531 13.851562-83.507812v-176.667969c0-4.980469-2.46875-9.632813-6.589843-12.421875zm-107.148438 190.003906-109.371093 132.296875c-2.90625 3.515625-7.175782 5.441407-11.5625 5.441407-1.699219 0-3.417969-.289063-5.078126-.886719-5.953124-2.140625-9.921874-7.785157-9.921874-14.113281v-116.421876h-45.628907c-5.808593 0-11.097656-3.355468-13.570312-8.613281-2.476563-5.253906-1.691407-11.46875 2.007812-15.945312l109.375-132.296875c4.027344-4.875 10.679688-6.699219 16.636719-4.558594 5.953125 2.144531 9.921875 7.789062 9.921875 14.117188v116.425781h45.628906c5.8125 0 11.097657 3.351562 13.574219 8.609375 2.472656 5.257812 1.691406 11.46875-2.011719 15.945312zm0 0" data-original="#000000" class="active-path" data-old_color="#000000" fill="#FFFFFF"/></g> </svg>
