<?xml version="1.0"?>
<svg xmlns="http://www.w3.org/2000/svg" xmlns:xlink="http://www.w3.org/1999/xlink" version="1.1" id="Capa_1" x="0px" y="0px" viewBox="0 0 512 512" style="enable-background:new 0 0 512 512;" xml:space="preserve" width="512px" height="512px" class=""><g><g>
	<g>
		<path d="M286.998,240.809h-92c-8.291,0-15,6.709-15,15v195.999h121.999V255.809C301.998,247.518,295.289,240.809,286.998,240.809z    " data-original="#000000" class="active-path" data-old_color="#000000" fill="#FFFFFF"/>
	</g>
</g><g>
	<g>
		<path d="M509.287,157.212L404.288,6.212c-5.625-8.027-18.955-8.027-24.58,0L274.708,157.212    c-3.208,4.584-3.604,10.561-1.011,15.527c2.578,4.966,7.705,8.071,13.301,8.071h45v270.998h119.999V180.809h45    c5.596,0,10.723-3.105,13.301-8.071C512.891,167.773,512.495,161.797,509.287,157.212z" data-original="#000000" class="active-path" data-old_color="#000000" fill="#FFFFFF"/>
	</g>
</g><g>
	<g>
		<path d="M134.999,330.809H45c-8.291,0-15,6.709-15,15v105.999h119.999V345.808C149.999,337.518,143.29,330.809,134.999,330.809z" data-original="#000000" class="active-path" data-old_color="#000000" fill="#FFFFFF"/>
	</g>
</g><g>
	<g>
		<path d="M496.997,481.808c-240.938,0-234.142,0-481.997,0c-8.291,0-15,6.709-15,15s6.709,15,15,15c237.243,0-0.56,0,481.997,0    c8.291,0,15-6.709,15-15S505.288,481.808,496.997,481.808z" data-original="#000000" class="active-path" data-old_color="#000000" fill="#FFFFFF"/>
	</g>
</g></g> </svg>
