<?xml version="1.0"?>
<svg xmlns="http://www.w3.org/2000/svg" viewBox="0 0 512 512" width="512px" height="512px" class=""><g><path d="m44.21875 296.378906 24.476562-12.035156 11.371094 23.125-24.476562 12.035156zm0 0" data-original="#000000" class="active-path" data-old_color="#000000" fill="#FFFFFF"/><path d="m226.664062 337.078125 59.8125 67.90625 60.347657-71.796875v-5.335938c-18.398438 8.101563-38.71875 12.609376-60.078125 12.609376s-41.683594-4.507813-60.082032-12.609376zm0 0" data-original="#000000" class="active-path" data-old_color="#000000" fill="#FFFFFF"/><path d="m25.875 197.238281c-1.609375-3.269531-4.390625-5.71875-7.839844-6.894531-1.441406-.488281-2.929687-.734375-4.410156-.734375-2.058594 0-4.105469.472656-6.003906 1.40625-6.75 3.316406-9.539063 11.507813-6.222656 18.257813l4.984374 10.136718 24.476563-12.035156zm0 0" data-original="#000000" class="active-path" data-old_color="#000000" fill="#FFFFFF"/><path d="m286.746094 310.460938c65.9375 0 119.585937-53.644532 119.585937-119.585938v-71.285156c0-65.945313-53.644531-119.589844-119.585937-119.589844s-119.589844 53.644531-119.589844 119.589844v71.285156c0 65.941406 53.648438 119.585938 119.589844 119.585938zm-84.328125-197.734376h168.652343v89.546876l-12.269531 6.414062c-22.558593 11.789062-47.308593 17.683594-72.058593 17.683594-24.746094 0-49.496094-5.894532-72.054688-17.683594l-12.269531-6.414062zm0 0" data-original="#000000" class="active-path" data-old_color="#000000" fill="#FFFFFF"/><path d="m19.613281 246.332031 24.476563-12.035156 11.371094 23.125-24.476563 12.035156zm0 0" data-original="#000000" class="active-path" data-old_color="#000000" fill="#FFFFFF"/><path d="m461.441406 378.386719-94.125-22.953125-131.597656 156.566406h276.273438v-69.25c0-30.636719-20.789063-57.105469-50.550782-64.363281zm0 0" data-original="#000000" class="active-path" data-old_color="#000000" fill="#FFFFFF"/><path d="m341.070312 184.019531v-41.292969h-108.652343v41.292969c34.324219 16.472657 74.332031 16.472657 108.652343 0zm0 0" data-original="#000000" class="active-path" data-old_color="#000000" fill="#FFFFFF"/><path d="m203.441406 356.097656-91.390625 22.289063c-29.765625 7.257812-50.554687 33.726562-50.554687 64.363281v69.25h135.035156l70.425781-83.789062zm0 0" data-original="#000000" class="active-path" data-old_color="#000000" fill="#FFFFFF"/><path d="m136.824219 341.464844-11.273438-22.929688-5.324219 2.617188-44.554687 21.90625-39.074219 19.210937 12.367188 25.101563c13.046875-18.5625 32.597656-32.429688 55.980468-38.132813zm0 0" data-original="#000000" class="active-path" data-old_color="#000000" fill="#FFFFFF"/></g> </svg>
