<?xml version="1.0"?>
<svg xmlns="http://www.w3.org/2000/svg" id="Layer_5" enable-background="new 0 0 64 64" height="512px" viewBox="0 0 64 64" width="512px"><g><path d="m53.275 49.325c-1.324-1.459-3.241-2.325-5.275-2.325-2.484 0-4.805 1.342-6.056 3.501l-.289.499h-25.31l-.289-.499c-1.251-2.159-3.572-3.501-6.056-3.501-2.034 0-3.951.866-5.275 2.325l3.878.775 2.6 3.899-2.6 3.899-3.878.775c1.324 1.461 3.241 2.327 5.275 2.327 2.484 0 4.805-1.342 6.056-3.501l.289-.499h25.311l.289.499c1.25 2.159 3.571 3.501 6.055 3.501 2.034 0 3.951-.866 5.275-2.325l-3.878-.775-2.599-3.9 2.6-3.899zm-35.275 5.675h-2v-2h2zm4 0h-2v-2h2zm4 0h-2v-2h2z" data-original="#000000" class="active-path" data-old_color="#000000" fill="#FFFFFF"/><path d="m17 4.414-6.586 6.586h6.586z" data-original="#000000" class="active-path" data-old_color="#000000" fill="#FFFFFF"/><path d="m17.475 49h23.051c1.662-2.481 4.476-4 7.475-4 .337 0 .669.03 1 .066v-5.135c-3.612-.453-6.477-3.319-6.931-6.931h-.07c-1.302 0-2.402-.839-2.816-2h-6.184v12h-22v-18h10v-12h16.05c.317-4.214 2.649-7.865 6.039-10h-24.089v10h-10v32.066c.331-.036.663-.066 1-.066 2.999 0 5.812 1.519 7.475 4zm3.525-44h14v2h-14zm0 4h14v2h-14z" data-original="#000000" class="active-path" data-old_color="#000000" fill="#FFFFFF"/><path d="m13 27v14h18v-10h-10v-4zm14 10h2v2h-2zm-4 0h2v2h-2zm-6 2h-2v-2h2zm4 0h-2v-2h2z" data-original="#000000" class="active-path" data-old_color="#000000" fill="#FFFFFF"/><path d="m50 38c2.967 0 5.431-2.167 5.91-5h-11.82c.479 2.833 2.943 5 5.91 5z" data-original="#000000" class="active-path" data-old_color="#000000" fill="#FFFFFF"/><path d="m42 27h.245l-3.694-6.867c-.853-1.585-1.345-3.343-1.487-5.133h-14.064v14h16.184c.414-1.161 1.514-2 2.816-2zm-15-8h-2v-2h2zm4 0h-2v-2h2zm4 0h-2v-2h2z" data-original="#000000" class="active-path" data-old_color="#000000" fill="#FFFFFF"/><path d="m50.735 16h-1.47l.579 11h.312z" data-original="#000000" class="active-path" data-old_color="#000000" fill="#FFFFFF"/><path d="m55 13c0-.551-.448-1-1-1h-.103c-.532 0-.971.416-.998.947l-.055 1.053h1.156c.552 0 1-.449 1-1z" data-original="#000000" class="active-path" data-old_color="#000000" fill="#FFFFFF"/><path d="m50.021 3c-6.095 0-11.021 4.925-11.021 10.979 0 1.811.454 3.611 1.312 5.206l4.209 7.815h3.319l-.578-11h-1.262c-1.654 0-3-1.346-3-3s1.346-3 3-3h.103c1.597 0 2.912 1.249 2.996 2.843l.06 1.157h1.682l.061-1.158c.083-1.593 1.399-2.842 2.995-2.842h.103c1.654 0 3 1.346 3 3s-1.346 3-3 3h-1.262l-.578 11h3.32l4.208-7.815c.858-1.595 1.312-3.395 1.312-5.206 0-6.054-4.926-10.979-10.979-10.979z" data-original="#000000" class="active-path" data-old_color="#000000" fill="#FFFFFF"/><path d="m46.103 12h-.103c-.552 0-1 .449-1 1s.448 1 1 1h1.156l-.056-1.052c-.027-.532-.465-.948-.997-.948z" data-original="#000000" class="active-path" data-old_color="#000000" fill="#FFFFFF"/><path d="m58 29h-16c-.552 0-1 .449-1 1s.448 1 1 1h16c.552 0 1-.449 1-1s-.448-1-1-1z" data-original="#000000" class="active-path" data-old_color="#000000" fill="#FFFFFF"/></g> </svg>
