<?xml version="1.0"?>
<svg xmlns="http://www.w3.org/2000/svg" xmlns:xlink="http://www.w3.org/1999/xlink" version="1.1" id="Capa_1" x="0px" y="0px" viewBox="0 0 512 512" style="enable-background:new 0 0 512 512;" xml:space="preserve" width="512px" height="512px"><g><g>
	<g>
		<circle cx="174.82" cy="45" r="45" data-original="#000000" class="active-path" data-old_color="#000000" fill="#FFFFFF"/>
	</g>
</g><g>
	<g>
		<circle cx="354.82" cy="75" r="45" data-original="#000000" class="active-path" data-old_color="#000000" fill="#FFFFFF"/>
	</g>
</g><g>
	<g>
		<path d="M399.821,150h-60c-33.14,0-60,26.86-60,60v-30c0-33.14-26.86-60-60-60h-120c-32.325,0-58.675,25.555-59.952,57.567    c-0.032,0.807-0.048,1.618-0.048,2.433v151c0,7.045,2.434,13.517,6.5,18.636C51.999,356.787,60.614,361,69.821,361    c16.359,0,30-13.248,30-30v-69.559l75.408,32.316c-0.262-2.562-0.408-5.148-0.408-7.757c0-41.355,33.645-75,75-75    c18.474,0,36.231,6.783,50.001,19.1c15.888,14.215,24.999,34.589,24.999,55.9c0,2.609-0.147,5.195-0.408,7.757l75.408-32.316V331    c0,16.551,13.446,30,30,30c16.385,0,30-13.318,30-30V210C459.821,176.86,432.961,150,399.821,150z" data-original="#000000" class="active-path" data-old_color="#000000" fill="#FFFFFF"/>
	</g>
</g><g>
	<g>
		<path d="M469.222,397.13c-6.504-8.735-12.345-17.964-17.36-27.429l-112.041,48.002V512h30c16.569,0,30-13.431,30-30v-61H457.1    C469.385,421,476.559,406.984,469.222,397.13z" data-original="#000000" class="active-path" data-old_color="#000000" fill="#FFFFFF"/>
	</g>
</g><g>
	<g>
		<path d="M129.821,404.847V482c0,16.57,13.43,30,30,30v-94.297L129.821,404.847z" data-original="#000000" class="active-path" data-old_color="#000000" fill="#FFFFFF"/>
	</g>
</g><g>
	<g>
		<path d="M369.821,306.937L255.73,355.83c-3.773,1.617-8.044,1.617-11.817,0l-114.091-48.893    c-0.776,21.81,3.805,39.088-12.052,60.109l72.052,30.875V512c0,0,30,0,60,0s60,0,60,0V397.92l72.052-30.875    C365.01,344.688,371.132,323.409,369.821,306.937z" data-original="#000000" class="active-path" data-old_color="#000000" fill="#FFFFFF"/>
	</g>
</g><g>
	<g>
		<path d="M279.821,252.46c-7.96-7.12-18.48-11.46-30-11.46c-24.85,0-45,20.15-45,45c0,10.08,3.32,19.39,8.92,26.9    c8.2,10.98,21.31,18.1,36.08,18.1c14.77,0,27.88-7.12,36.08-18.1c5.6-7.51,8.92-16.82,8.92-26.9    C294.821,272.67,289.031,260.7,279.821,252.46z" data-original="#000000" class="active-path" data-old_color="#000000" fill="#FFFFFF"/>
	</g>
</g></g> </svg>
